<?xml version="1.0" encoding="UTF-8"?>
<svg width="168px" height="74px" viewBox="0 0 168 74" version="1.1" xmlns="http://www.w3.org/2000/svg" xmlns:xlink="http://www.w3.org/1999/xlink">
    <title>iQOOZ7x</title>
    <g id="页面-1" stroke="none" stroke-width="1" fill="white" fill-rule="evenodd">
        <g id="midbanner-1备份" transform="translate(-361.000000, -446.000000)" fill="#FFFFFF" fill-rule="nonzero">
            <path d="M414.28,519.28 L414.28,511.408 L372.616,511.408 L413.416,453.136 L413.416,446.32 L361.384,446.32 L361.384,454.096 L401.896,454.096 L361,512.368 L361,519.28 L414.28,519.28 Z M441.064,519.28 L469.576,452.944 L469.576,446.32 L421,446.32 L421,454.096 L459.976,454.096 L431.464,519.28 L441.064,519.28 Z M484.264,519.28 L501.352,497.104 L518.632,519.28 L528.616,519.28 L506.44,490.864 L527.368,463.984 L517.48,463.984 L501.448,484.624 L485.416,463.984 L475.432,463.984 L496.456,490.96 L474.376,519.28 L484.264,519.28 Z" id="iQOOZ7x"></path>
        </g>
    </g>
</svg>